<?xml version="1.0" encoding="utf-8"?>
<!-- Generator: Adobe Illustrator 15.0.0, SVG Export Plug-In . SVG Version: 6.00 Build 0)  -->
<!DOCTYPE svg PUBLIC "-//W3C//DTD SVG 1.1//EN" "http://www.w3.org/Graphics/SVG/1.1/DTD/svg11.dtd">
<svg version="1.1" id="Calque_1" xmlns="http://www.w3.org/2000/svg" xmlns:xlink="http://www.w3.org/1999/xlink" x="0px" y="0px"
	 width="142.667px" height="77.535px" viewBox="0 0 142.667 77.535" enable-background="new 0 0 142.667 77.535"
	 xml:space="preserve">
<g opacity="0.18">
	<g>
		<path fill="#2CB1BC" d="M515.934-123.476c7.374-5.568,13.659-12.567,21.5-17.5c-1.714-1.317-3.428-2.635-5.142-3.953
			c-3.192,9.493-12.027,15.616-16.147,24.664c-1.624,3.566,2.428,7.02,5.497,4.241c10.874-9.843,21.771-19.985,34.792-26.953
			c-1.756-1.007-3.511-2.015-5.267-3.022c-0.01,6.729-9.068,12.729-12.975,17.525c-7.527,9.242-14.433,19.192-20.048,29.708
			c-1.633,3.059,1.67,6.584,4.789,4.789c16.863-9.705,28.159-26.019,44-37c-1.597-1.596-3.192-3.192-4.789-4.789
			c-8.777,14.878-22.893,25.683-32.5,40c-2.366,3.527,2.63,6.616,5.497,4.241c13.411-11.107,24.103-25.572,39.292-34.453
			c-1.597-1.596-3.192-3.192-4.789-4.789c-7.139,16.708-23.607,27.604-28.853,45.336c-0.963,3.255,2.513,5.068,5.142,3.953
			c12.558-5.33,21.335-16.887,34.164-21.647c-1.317-1.714-2.636-3.428-3.953-5.142c-4.595,8.122-11.873,14.324-17.952,21.292
			c-2.954,3.385,1.977,8.356,4.949,4.949c6.477-7.422,14.149-14.051,19.048-22.708c1.407-2.487-0.94-6.26-3.953-5.142
			c-13.493,5.008-22.698,16.776-35.836,22.353c1.714,1.317,3.428,2.636,5.142,3.953c5.018-16.964,21.272-27.574,28.147-43.664
			c1.292-3.024-1.479-6.724-4.789-4.789c-15.74,9.202-26.821,24.045-40.708,35.547c1.832,1.413,3.664,2.827,5.497,4.241
			c9.609-14.322,23.698-25.081,32.5-40c1.704-2.89-1.818-6.848-4.789-4.789c-15.83,10.974-27.2,27.332-44,37
			c1.597,1.597,3.192,3.192,4.789,4.789c5.675-10.632,12.609-21.44,20.755-30.366c5.169-5.665,13.21-12.006,13.223-20.401
			c0.004-2.729-2.954-4.259-5.267-3.022c-13.522,7.236-24.915,17.824-36.208,28.047c1.832,1.413,3.664,2.827,5.497,4.241
			c4.398-9.659,13.41-16.099,16.853-26.336c0.979-2.913-2.609-5.546-5.142-3.953c-7.877,4.956-14.108,11.918-21.5,17.5
			C508.847-126.836,512.328-120.753,515.934-123.476L515.934-123.476z"/>
	</g>
</g>
<circle fill="#54D1DB" cx="-95.333" cy="42.002" r="72"/>
<g>
	<path fill="none" stroke="#F9F9F9" stroke-width="3" stroke-miterlimit="10" d="M-65.833,11.002v73.64
		c0,3.513-2.785,6.86-6.298,6.86h-42.202"/>
	<path fill="none" stroke="#F9F9F9" stroke-width="3" stroke-miterlimit="10" d="M-124.833,77.002V2.862
		c0-3.513,2.848-6.36,6.36-6.36h42.14"/>
	<line fill="none" stroke="#F9F9F9" stroke-width="3" stroke-miterlimit="10" x1="-111.333" y1="10.502" x2="-64.333" y2="10.502"/>
	<circle fill="#FFFFFF" stroke="#F9F9F9" stroke-miterlimit="10" cx="-94.166" cy="81.234" r="4.771"/>
</g>
<g>
	<circle fill="#54D1DB" cx="-95.333" cy="-121.998" r="72"/>
	<g>
		<path fill="none" stroke="#FAF9F7" stroke-width="3" stroke-miterlimit="10" d="M-89.846-83.195"/>
		<path fill="none" stroke="#FAF9F7" stroke-width="3" stroke-miterlimit="10" d="M-135.833-104.998v-53.193
			c0-3.949,2.651-7.307,5.604-7.307h70.183c2.953,0,5.214,3.357,5.214,7.307v72.505c0,3.949-2.261,8.188-5.214,8.188h-31.286"/>
		<path fill="none" stroke="#FAF9F7" stroke-width="3" stroke-miterlimit="10" d="M-124.894-135.824
			c-0.59,0-0.939-0.109-0.939-0.697v-9.124c0-0.588,0.575-0.853,1.164-0.853h9.123c0.589,0,0.713,0.265,0.713,0.853v-0.353"/>
		<path fill="none" stroke="#FAF9F7" stroke-width="3" stroke-miterlimit="10" d="M-106.896-135.936
			c-0.587,0-0.938-0.22-0.938-0.809v-9.123c0-0.588,0.257-0.631,0.845-0.631h9.123c0.589,0,1.032,0.043,1.032,0.631v-0.131"/>
		<path fill="none" stroke="#FAF9F7" stroke-width="3" stroke-miterlimit="10" d="M-89.394-135.824
			c-0.589,0-1.439-0.109-1.439-0.697v-9.124c0-0.588,0.981-0.853,1.57-0.853h9.122c0.588,0,1.308,0.265,1.308,0.853v-0.353"/>
		<path fill="#FFFFFF" stroke="#FAF9F7" stroke-width="3" stroke-miterlimit="10" d="M-70.895-135.824
			c-0.589,0-0.938-0.109-0.938-0.697v-9.124c0-0.588,0.773-0.853,1.362-0.853h9.124c0.589,0,0.514,0.265,0.514,0.853v-0.353"/>
		<path fill="#FFFFFF" stroke="#FAF9F7" stroke-width="3" stroke-miterlimit="10" d="M-70.895-120.202
			c-0.589,0-0.938-0.489-0.938-1.075v-9.125c0-0.588,0.773-1.096,1.362-1.096h9.124c0.589,0,0.514,0.508,0.514,1.096v0.404"/>
		<path fill="#FFFFFF" stroke="#FAF9F7" stroke-width="3" stroke-miterlimit="10" d="M-70.895-103.658
			c-0.589,0-0.938-0.941-0.938-1.529v-9.125c0-0.587,0.773-1.186,1.362-1.186h9.124c0.589,0,0.514,0.599,0.514,1.186v1.314"/>
		<path fill="#FFFFFF" stroke="#FAF9F7" stroke-width="3" stroke-miterlimit="10" d="M-70.895-88.535
			c-0.589,0-0.938-0.821-0.938-1.41v-9.123c0-0.588,0.773-0.43,1.362-0.43h9.124c0.589,0,0.514-0.158,0.514,0.43v1.07"/>
		
			<line fill="none" stroke="#FAF9F7" stroke-width="3" stroke-miterlimit="10" x1="-136.333" y1="-154.498" x2="-83.333" y2="-154.498"/>
		
			<line fill="none" stroke="#FAF9F7" stroke-width="3" stroke-miterlimit="10" x1="-118.833" y1="-169.998" x2="-118.833" y2="-161.998"/>
		
			<line fill="none" stroke="#FAF9F7" stroke-width="3" stroke-miterlimit="10" x1="-73.833" y1="-169.998" x2="-73.833" y2="-161.998"/>
		<path fill="none" stroke="#FAF9F7" stroke-width="3" stroke-miterlimit="10" d="M-124.894-120.202
			c-0.59,0-0.939-0.489-0.939-1.075v-9.125c0-0.588,0.575-1.096,1.164-1.096h9.123c0.589,0,0.713,0.508,0.713,1.096v0.404"/>
		<path fill="none" stroke="#FAF9F7" stroke-width="3" stroke-miterlimit="10" d="M-106.896-120.313
			c-0.587,0-0.938-0.599-0.938-1.188v-9.122c0-0.589,0.257-0.875,0.845-0.875h9.123c0.589,0,1.032,0.286,1.032,0.875v0.625"/>
		<path fill="none" stroke="#FAF9F7" stroke-width="3" stroke-miterlimit="10" d="M-89.394-120.202
			c-0.589,0-1.439-0.489-1.439-1.075v-9.125c0-0.588,0.981-1.096,1.57-1.096h9.122c0.588,0,1.308,0.508,1.308,1.096v0.404"/>
		<path fill="none" stroke="#FAF9F7" stroke-width="3" stroke-miterlimit="10" d="M-106.896-103.768
			c-0.587,0-0.938-1.055-0.938-1.643v-9.123c0-0.589,0.257-0.965,0.845-0.965h9.123c0.589,0,1.032,0.376,1.032,0.965v1.535"/>
		<path fill="none" stroke="#FAF9F7" stroke-width="3" stroke-miterlimit="10" d="M-89.394-103.658
			c-0.589,0-1.439-0.941-1.439-1.529v-9.125c0-0.587,0.981-1.186,1.57-1.186h9.122c0.588,0,1.308,0.599,1.308,1.186v1.314"/>
		<path fill="none" stroke="#FAF9F7" stroke-width="3" stroke-miterlimit="10" d="M-89.394-88.535c-0.589,0-1.439-0.821-1.439-1.41
			v-9.123c0-0.588,0.981-0.43,1.57-0.43h9.122c0.588,0,1.308-0.158,1.308,0.43v1.07"/>
	</g>
</g>
<path fill="none" stroke="#54D1DB" stroke-width="3" stroke-miterlimit="10" d="M269.167-320.998v81.5c0,3.866-3.134,7-7,7h-46.5"/>
<path fill="none" stroke="#54D1DB" stroke-width="3" stroke-miterlimit="10" d="M204.167-247.998v-81.5c0-3.866,3.134-7,7-7h46.5"/>
<line fill="none" stroke="#54D1DB" stroke-width="3" stroke-miterlimit="10" x1="218.667" y1="-321.498" x2="270.667" y2="-321.498"/>
<circle fill="#54D1DB" cx="237.917" cy="-243.248" r="5.25"/>
<g opacity="0.18">
	<g>
		<path fill="#2CB1BC" d="M209.934-304.476c7.374-5.568,13.659-12.567,21.5-17.5c-1.714-1.317-3.428-2.635-5.142-3.953
			c-3.192,9.493-12.027,15.616-16.147,24.664c-1.624,3.566,2.428,7.02,5.497,4.242c10.874-9.844,21.771-19.985,34.792-26.953
			c-1.755-1.007-3.511-2.015-5.267-3.022c-0.01,6.729-9.068,12.729-12.975,17.525c-7.527,9.242-14.433,19.191-20.047,29.708
			c-1.633,3.059,1.669,6.584,4.789,4.789c16.863-9.705,28.159-26.018,44-37c-1.596-1.596-3.192-3.192-4.789-4.789
			c-8.778,14.878-22.893,25.682-32.5,40c-2.367,3.527,2.629,6.617,5.497,4.242c13.411-11.108,24.102-25.573,39.292-34.453
			c-1.596-1.596-3.192-3.192-4.789-4.789c-7.139,16.708-23.607,27.604-28.853,45.336c-0.963,3.255,2.512,5.069,5.142,3.953
			c12.558-5.33,21.335-16.886,34.164-21.647c-1.318-1.714-2.635-3.428-3.953-5.142c-4.595,8.122-11.873,14.324-17.953,21.292
			c-2.954,3.385,1.977,8.357,4.95,4.95c6.476-7.422,14.149-14.051,19.047-22.708c1.407-2.487-0.94-6.259-3.953-5.142
			c-13.493,5.007-22.699,16.777-35.836,22.353c1.714,1.317,3.428,2.635,5.142,3.953c5.018-16.964,21.272-27.575,28.147-43.664
			c1.292-3.024-1.479-6.724-4.789-4.789c-15.74,9.202-26.821,24.045-40.708,35.547c1.833,1.414,3.665,2.828,5.497,4.242
			c9.61-14.322,23.698-25.081,32.5-40c1.705-2.89-1.818-6.848-4.789-4.789c-15.83,10.974-27.201,27.332-44,37
			c1.596,1.596,3.192,3.192,4.789,4.789c5.676-10.631,12.61-21.44,20.755-30.366c5.169-5.665,13.211-12.006,13.223-20.401
			c0.004-2.729-2.955-4.259-5.267-3.022c-13.522,7.236-24.915,17.824-36.208,28.047c1.833,1.414,3.665,2.828,5.497,4.242
			c4.399-9.659,13.411-16.099,16.853-26.336c0.979-2.913-2.609-5.546-5.142-3.953c-7.877,4.956-14.108,11.918-21.5,17.5
			C202.847-307.836,206.328-301.753,209.934-304.476L209.934-304.476z"/>
	</g>
</g>
<g opacity="0.18">
	<g>
		<path fill="#2CB1BC" d="M440.355-314.907c4.759,3.947,8.223,8.722,10.437,14.502c1.436-1.436,2.87-2.871,4.306-4.306
			c-10.594-1.678-19.638-8.088-30.232-9.767c-2.977-0.472-5.515,2.237-3.953,5.142c6.311,11.73,18.058,19.069,26.246,29.313
			c1.649-1.65,3.3-3.3,4.949-4.95c-6.942-6.359-14.789-13.408-24.22-15.551c-3.139-0.713-5.273,2.365-3.953,5.142
			c5.762,12.109,19.561,19.796,22.323,33.35c1.436-1.436,2.87-2.871,4.306-4.306c-8.928-3.652-16.155-10.247-25.698-12.558
			c-3.56-0.862-5.636,3.223-3.405,5.85c7.697,9.065,17.304,16.753,22.127,27.896c1.597-1.596,3.192-3.192,4.789-4.789
			c-8.829-5.108-16.173-12.461-26.709-13.734c-2.169-0.262-4.109,2.45-3.375,4.431c4.676,12.607,15.92,20.514,23.027,31.534
			c1.597-1.596,3.192-3.192,4.789-4.789c-7.628-3.541-15.255-7.192-23.86-5.935c-2.226,0.325-3.201,3.397-2.092,5.142
			c3.98,6.259,9.631,11.193,13.604,17.442c2.415,3.796,8.475,0.288,6.045-3.533c-3.981-6.259-9.631-11.193-13.604-17.442
			c-0.697,1.714-1.395,3.428-2.092,5.142c6.389-0.934,12.871,2.632,18.466,5.229c2.939,1.365,6.855-1.583,4.789-4.789
			c-6.671-10.342-17.966-18.116-22.322-29.862c-1.125,1.477-2.25,2.954-3.375,4.431c8.808,1.064,15.788,8.504,23.176,12.778
			c3.302,1.91,6.104-1.751,4.789-4.789c-5.057-11.681-15.155-19.812-23.223-29.313c-1.135,1.95-2.27,3.9-3.405,5.85
			c9.399,2.276,16.838,8.933,25.698,12.558c2.681,1.097,4.776-1.997,4.306-4.306c-2.951-14.477-16.951-22.248-23.028-35.022
			c-1.317,1.714-2.636,3.428-3.953,5.142c8.255,1.876,15.06,8.19,21.132,13.751c3.399,3.114,7.719-1.485,4.949-4.95
			c-7.795-9.751-19.157-16.754-25.15-27.896c-1.317,1.714-2.636,3.428-3.953,5.142c10.594,1.678,19.638,8.089,30.232,9.767
			c2.334,0.37,5.365-1.538,4.306-4.306c-2.644-6.9-6.521-12.85-12.237-17.591C441.858-322.715,436.877-317.792,440.355-314.907
			L440.355-314.907z"/>
	</g>
</g>
<g>
	<path fill="none" stroke="#54D1DB" stroke-width="3" stroke-miterlimit="10" d="M405.025-238.669"/>
	<path fill="none" stroke="#54D1DB" stroke-width="3" stroke-miterlimit="10" d="M350.167-264.998v-62.172
		c0-4.66,3.719-8.328,7.202-8.328h82.821c3.484,0,5.977,3.668,5.977,8.328v85.562c0,4.661-2.492,10.11-5.977,10.11h-36.523"/>
	<path fill="none" stroke="#54D1DB" stroke-width="3" stroke-miterlimit="10" d="M363.286-300.884c-0.697,0-1.119-0.021-1.119-0.714
		v-10.767c0-0.693,1.069-1.133,1.765-1.133h10.766c0.695,0,0.47,0.44,0.47,1.133v-0.633"/>
	<path fill="none" stroke="#54D1DB" stroke-width="3" stroke-miterlimit="10" d="M384.784-301.015c-0.693,0-1.617-0.15-1.617-0.845
		v-10.766c0-0.694,0.936-0.873,1.628-0.873h10.767c0.694,0,1.605,0.179,1.605,0.873v-0.373"/>
	<path fill="none" stroke="#54D1DB" stroke-width="3" stroke-miterlimit="10" d="M406.285-300.884c-0.694,0-1.118-0.021-1.118-0.714
		v-10.767c0-0.693-0.149-1.133,0.547-1.133h10.764c0.694,0,1.689,0.44,1.689,1.133v-0.633"/>
	<path fill="none" stroke="#54D1DB" stroke-width="3" stroke-miterlimit="10" d="M426.783-300.884c-0.694,0-0.616-0.021-0.616-0.714
		v-10.767c0-0.693,1.026-1.133,1.723-1.133h10.766c0.696,0-0.488,0.44-0.488,1.133v-0.633"/>
	<path fill="none" stroke="#54D1DB" stroke-width="3" stroke-miterlimit="10" d="M426.783-282.388c-0.694,0-0.616-0.529-0.616-1.221
		v-10.767c0-0.694,1.026-2.123,1.723-2.123h10.766c0.696,0-0.488,1.429-0.488,2.123v0.377"/>
	<path fill="none" stroke="#54D1DB" stroke-width="3" stroke-miterlimit="10" d="M426.783-262.396c-0.694,0-0.616-1.532-0.616-2.226
		v-10.768c0-0.692,1.026-1.109,1.723-1.109h10.766c0.696,0-0.488,0.417-0.488,1.109v2.391"/>
	<path fill="none" stroke="#54D1DB" stroke-width="3" stroke-miterlimit="10" d="M426.783-244.9c-0.694,0-0.616-1.039-0.616-1.734
		V-257.4c0-0.693,1.026-0.098,1.723-0.098h10.766c0.696,0-0.488-0.595-0.488,0.098v1.402"/>
	
		<line fill="none" stroke="#54D1DB" stroke-width="3" stroke-miterlimit="10" x1="349.667" y1="-322.498" x2="412.667" y2="-322.498"/>
	
		<line fill="none" stroke="#54D1DB" stroke-width="3" stroke-miterlimit="10" x1="371.167" y1="-340.998" x2="371.167" y2="-331.998"/>
	
		<line fill="none" stroke="#54D1DB" stroke-width="3" stroke-miterlimit="10" x1="424.167" y1="-340.998" x2="424.167" y2="-331.998"/>
	<path fill="none" stroke="#54D1DB" stroke-width="3" stroke-miterlimit="10" d="M363.286-282.388c-0.697,0-1.119-0.529-1.119-1.221
		v-10.767c0-0.694,1.069-2.123,1.765-2.123h10.766c0.695,0,0.47,1.429,0.47,2.123v0.377"/>
	<path fill="none" stroke="#54D1DB" stroke-width="3" stroke-miterlimit="10" d="M384.784-282.52c-0.693,0-1.617-0.657-1.617-1.352
		v-10.765c0-0.694,0.936-1.861,1.628-1.861h10.767c0.694,0,1.605,1.167,1.605,1.861v0.639"/>
	<path fill="none" stroke="#54D1DB" stroke-width="3" stroke-miterlimit="10" d="M406.285-282.388c-0.694,0-1.118-0.529-1.118-1.221
		v-10.767c0-0.694-0.149-2.123,0.547-2.123h10.764c0.694,0,1.689,1.429,1.689,2.123v0.377"/>
	<path fill="none" stroke="#54D1DB" stroke-width="3" stroke-miterlimit="10" d="M384.784-262.525c-0.693,0-1.617-1.665-1.617-2.358
		v-10.766c0-0.695,0.936-0.849,1.628-0.849h10.767c0.694,0,1.605,0.154,1.605,0.849v2.651"/>
	<path fill="none" stroke="#54D1DB" stroke-width="3" stroke-miterlimit="10" d="M406.285-262.396c-0.694,0-1.118-1.532-1.118-2.226
		v-10.768c0-0.692-0.149-1.109,0.547-1.109h10.764c0.694,0,1.689,0.417,1.689,1.109v2.391"/>
	<path fill="none" stroke="#54D1DB" stroke-width="3" stroke-miterlimit="10" d="M406.285-244.9c-0.694,0-1.118-1.039-1.118-1.734
		V-257.4c0-0.693-0.149-0.098,0.547-0.098h10.764c0.694,0,1.689-0.595,1.689,0.098v1.402"/>
</g>
<g opacity="0.18">
	<g>
		<path fill="#2CB1BC" d="M563.734-232.352c-2.263-7.124-5.813-13.788-7.481-21.101c-1.95,1.135-3.9,2.271-5.85,3.406
			c6.511,5.177,8.964,13.596,14.868,19.377c2.312,2.263,7.263,0.001,5.85-3.406c-4.633-11.169-9.448-22.443-11.299-34.472
			c-1.436,1.436-2.87,2.871-4.306,4.306c4.959,1.832,7.525,11.648,10.216,15.853c4.912,7.675,10.195,15.104,16.331,21.856
			c2.544,2.8,6.445-0.212,5.85-3.406c-2.879-15.419-12.097-28.486-16.209-43.495c-1.95,1.135-3.9,2.271-5.85,3.406
			c8.688,10.465,12.949,23.832,21.005,34.76c2.172,2.946,7.872,1.32,6.397-2.697c-4.93-13.434-13.015-25.716-15.766-39.901
			c-1.95,1.135-3.9,2.271-5.85,3.406c10.774,9.996,14.618,25.282,26.732,34.137c2.104,1.538,5.439-0.516,5.267-3.022
			c-0.775-11.267-7.006-21.351-7.273-32.639c-1.991,0.825-3.983,1.65-5.975,2.475c4.838,5.633,7.551,12.851,11.139,19.279
			c2.2,3.941,8.247,0.412,6.045-3.533c-3.916-7.016-6.95-14.544-12.234-20.696c-2.016-2.347-6.044-0.44-5.975,2.475
			c0.271,11.395,6.499,21.39,7.273,32.639c1.756-1.007,3.511-2.015,5.267-3.022c-11.362-8.305-15.068-23.536-25.316-33.043
			c-2.669-2.477-6.511-0.002-5.85,3.406c2.756,14.213,10.831,26.455,15.766,39.901c2.133-0.899,4.265-1.798,6.397-2.697
			c-8.427-11.431-12.992-25.206-22.101-36.177c-2.321-2.796-6.725,0.21-5.85,3.406c4.112,15.008,13.333,28.089,16.209,43.495
			c1.95-1.135,3.9-2.271,5.85-3.406c-6.605-7.269-12.964-15.585-17.514-24.329c-2.96-5.688-5.635-12.784-12.121-15.18
			c-2.78-1.027-4.668,1.949-4.306,4.306c1.851,12.028,6.666,23.302,11.299,34.472c1.95-1.135,3.899-2.271,5.85-3.406
			c-5.907-5.783-8.282-14.141-14.868-19.377c-2.679-2.13-6.679-0.228-5.85,3.406c1.668,7.312,5.219,13.976,7.481,21.101
			C558.346-226.205,565.104-228.037,563.734-232.352L563.734-232.352z"/>
	</g>
</g>
<g>
	<path fill="none" stroke="#54D1DB" stroke-width="3" stroke-miterlimit="10" d="M534.361-271.847
		c6.72-6.003,15.587-9.651,25.306-9.651c20.986,0,38,17.013,38,38"/>
	<circle fill="none" stroke="#54D1DB" stroke-width="3" stroke-miterlimit="10" cx="559.659" cy="-300.695" r="18.992"/>
</g>
<path fill="none" stroke="#54D1DB" stroke-width="3" stroke-miterlimit="10" d="M276.302-127.396
	c0.847,3.47,1.296,7.096,1.296,10.826c0,25.131-20.373,45.503-45.503,45.503s-45.503-20.372-45.503-45.503
	c0-25.13,20.373-45.503,45.503-45.503"/>
<g>
	<path fill="none" stroke="#54D1DB" stroke-width="3" stroke-miterlimit="10" d="M438.167-118.998"/>
	<polyline fill="none" stroke="#54D1DB" stroke-width="3" stroke-miterlimit="10" points="429.667,-68.498 359.167,-68.498 
		359.167,-163.498 429.667,-163.498 	"/>
	<rect x="363.167" y="-158.998" fill="none" width="28" height="28"/>
	<text transform="matrix(1 0 0 1 363.167 -136.7983)" fill="#54D1DB" font-family="'Poppins-Bold'" font-size="30">$</text>
	
		<line fill="none" stroke="#54D1DB" stroke-width="3" stroke-miterlimit="10" x1="387.667" y1="-144.498" x2="424.667" y2="-144.498"/>
	
		<line fill="none" stroke="#54D1DB" stroke-width="3" stroke-miterlimit="10" x1="370.667" y1="-127.498" x2="425.667" y2="-127.498"/>
	
		<line fill="none" stroke="#54D1DB" stroke-width="3" stroke-miterlimit="10" x1="370.667" y1="-115.498" x2="425.667" y2="-115.498"/>
	
		<line fill="none" stroke="#54D1DB" stroke-width="3" stroke-miterlimit="10" x1="370.667" y1="-104.498" x2="425.667" y2="-104.498"/>
	
		<line fill="none" stroke="#54D1DB" stroke-width="3" stroke-miterlimit="10" x1="370.667" y1="-93.498" x2="425.667" y2="-93.498"/>
</g>
<g opacity="0.18">
	<g>
		<path fill="#2CB1BC" d="M414.242-61.982c-5.293-8.716-11.938-16.54-16.645-25.616c-1.317,1.714-2.636,3.428-3.953,5.142
			c8.741,3.55,13.379,13.647,21.556,18.346c2.867,1.647,6.916-1.814,4.789-4.789c-9.694-13.555-19.455-27.174-26.373-42.409
			c-1.008,1.756-2.015,3.511-3.022,5.267c2.882-0.311,5.917,4.053,7.599,5.949c2.445,2.757,4.635,5.729,7.096,8.471
			c7.812,8.704,17.15,16.688,26.794,23.283c3.145,2.15,6.183-1.898,4.789-4.789c-9.21-19.101-24.652-33.96-35.013-52.328
			c-1.597,1.596-3.192,3.192-4.789,4.789c13.635,10.345,22.337,25.916,35.25,37.095c2.86,2.477,7.804-0.743,5.497-4.241
			c-10.628-16.115-24.381-29.984-32.916-47.464c-1.597,1.596-3.192,3.192-4.789,4.789c15.3,8.211,23.033,26.731,39.877,32.613
			c2.4,0.838,5.231-1.859,4.306-4.306c-5.658-14.955-16.744-27.077-21.929-42.219c-1.714,1.318-3.428,2.635-5.142,3.953
			c7.607,5.514,12.951,14,19.146,20.942c3.011,3.375,7.944-1.593,4.949-4.95c-6.669-7.474-12.369-16.098-20.562-22.037
			c-2.48-1.798-6.094,1.171-5.142,3.953c5.206,15.203,16.275,27.276,21.929,42.219c1.436-1.436,2.87-2.87,4.306-4.306
			c-7.725-2.697-13.555-9.566-19.034-15.327c-5.809-6.105-11.657-12.547-19.171-16.58c-3.211-1.724-6.315,1.663-4.789,4.789
			c8.537,17.484,22.287,31.347,32.916,47.464c1.833-1.414,3.665-2.828,5.497-4.241c-13.396-11.598-22.493-27.436-36.666-38.19
			c-2.95-2.238-6.381,1.965-4.789,4.789c10.36,18.368,25.804,33.227,35.013,52.328c1.597-1.597,3.192-3.192,4.789-4.789
			c-9.842-6.729-19.535-15.14-27.204-24.305c-4.081-4.876-10.276-15.165-17.817-14.354c-2.771,0.298-4.183,2.711-3.022,5.267
			c6.918,15.235,16.679,28.854,26.373,42.409c1.597-1.597,3.192-3.192,4.789-4.789c-8.864-5.093-13.483-15.094-23.228-19.051
			c-3.083-1.252-5.212,2.714-3.953,5.142c4.707,9.076,11.353,16.9,16.645,25.616C410.536-54.598,416.592-58.113,414.242-61.982
			L414.242-61.982z"/>
	</g>
</g>
<path fill="#54D1DB" d="M600.18-151.411c-13.054-1.122-25.651-5.344-36.742-12.316c-0.583-0.367-1.324-0.367-1.907,0
	c-11.091,6.973-23.688,11.199-36.742,12.323c-0.928,0.079-1.639,0.856-1.636,1.788v22.017c1.194-0.032,1.825-0.05,3.016-0.064
	l-0.001-20.959c12.67-1.34,25.444-5.735,36.316-12.375c10.873,6.637,23.764,11.038,36.434,12.375l0.125,22.979
	c-0.013,17.468-9.516,34.101-24.75,42.646l-11.625,6.75l-11.775-6.635c-0.021-0.012,0.479-0.673,0.458-0.685
	c-0.151,0.229-0.308,0.453-0.458,0.685c-0.497,0.767-0.979,1.548-1.457,2.33c0.078,0.045,0.151,0.096,0.23,0.14l11.945,6.69
	c0.543,0.305,1.204,0.305,1.747,0l11.944-6.69c16.363-9.176,26.501-26.47,26.513-45.23v-23.98
	C601.818-150.555,601.107-151.332,600.18-151.411z"/>
<path fill="#54D1DB" d="M598.239-125.644"/>
<path fill="#54D1DB" d="M551.089-122.685c-0.667-0.78-1.841-0.873-2.621-0.206c-0.781,0.666-0.873,1.841-0.206,2.62l9.816,11.496
	c0.656,0.768,1.805,0.872,2.586,0.235l22.864-18.602c0.797-0.646,0.917-1.817,0.269-2.614c-0.647-0.796-1.818-0.917-2.614-0.27
	l-21.456,17.455L551.089-122.685z M551.089-122.685"/>
<path fill="none" stroke="#54D1DB" stroke-width="3" stroke-miterlimit="10" d="M366.361,50.153
	c6.72-6.003,15.587-9.651,25.306-9.651c20.986,0,38,17.014,38,38"/>
<path fill="none" stroke="#54D1DB" stroke-width="3" stroke-miterlimit="10" d="M383.952,5.505"/>
<path fill="none" stroke="#54D1DB" stroke-width="3" stroke-miterlimit="10" d="M404.513,10.277
	c3.016,3.14,4.949,6.836,4.949,11.622c0,10.161-8.237,18.397-18.397,18.397c-10.161,0-18.397-8.236-18.397-18.397
	c0-7.755,3.488-13.386,10.14-15.987"/>
<g>
	<path fill="#54D1DB" d="M405.392,12.469c-4.003,0.454-7.886,0.322-11.733,0.013c-3.843-0.333-7.638-0.896-11.394-1.656
		c-3.756-0.759-7.47-1.724-11.137-2.918c-3.663-1.217-7.289-2.613-10.795-4.603c4.004-0.462,7.888-0.331,11.734-0.021
		c3.843,0.333,7.639,0.896,11.393,1.664c3.754,0.767,7.469,1.731,11.136,2.926C398.258,9.092,401.885,10.487,405.392,12.469z"/>
</g>
<path fill="#54D1DB" d="M379.875,7.221c0.431-7.421,7.888-10.622,15.107-10.181c7.219,0.442,12.721,6.816,12.291,14.237
	c-0.074,1.297,0.327,0.129-0.074,1.297"/>
<path fill="none" stroke="#54D1DB" stroke-width="3" stroke-miterlimit="10" d="M222.933,50.118
	c6.499-5.806,15.074-9.334,24.474-9.334c20.296,0,36.75,16.454,36.75,36.751"/>
<path fill="none" stroke="#54D1DB" stroke-width="3" stroke-miterlimit="10" d="M181.341,54.114
	c5.781-5.164,13.409-8.303,21.77-8.303c18.054,0,32.69,14.637,32.69,32.69"/>
<path fill="none" stroke="#54D1DB" stroke-width="3" stroke-miterlimit="10" d="M261.764,10.587
	c2.917,3.036,4.786,6.611,4.786,11.239c0,9.827-7.966,17.793-17.792,17.793c-9.827,0-17.792-7.966-17.792-17.793
	c0-7.499,3.374-12.945,9.806-15.461"/>
<path fill="none" stroke="#54D1DB" stroke-width="3" stroke-miterlimit="10" d="M216.028,18.059
	c2.651,2.762,4.351,6.011,4.351,10.219c0,8.937-7.243,16.178-16.176,16.178c-8.935,0-16.177-7.241-16.177-16.178
	c0-6.818,3.068-11.77,8.917-14.057"/>
<g>
	<path fill="none" stroke="#54D1DB" stroke-width="3" stroke-miterlimit="10" d="M615.948,22.918"/>
	<path fill="none" stroke="#54D1DB" stroke-width="3" stroke-miterlimit="10" d="M568.643,80.77"/>
	<path fill="none" stroke="#54D1DB" stroke-width="3" stroke-miterlimit="10" d="M525.167,59.002V10.261
		c0-3.713,2.732-7.759,5.508-7.759h65.984c2.775,0,4.508,4.046,4.508,7.759v68.167c0,3.713-1.732,8.074-4.508,8.074h-28.992"/>
	<path fill="none" stroke="#54D1DB" stroke-width="3" stroke-miterlimit="10" d="M535.38,31.428c-0.556,0-0.213-0.242-0.213-0.795
		v-8.578c0-0.553,0.182-0.553,0.736-0.553h8.577c0.554,0-0.313,0-0.313,0.553v-0.053"/>
	<path fill="none" stroke="#54D1DB" stroke-width="3" stroke-miterlimit="10" d="M552.378,31.322c-0.553,0-1.211-0.344-1.211-0.898
		v-8.576c0-0.553,0.806-0.346,1.357-0.346h8.578c0.553,0,1.064-0.207,1.064,0.346v0.154"/>
	<path fill="none" stroke="#54D1DB" stroke-width="3" stroke-miterlimit="10" d="M569.38,31.428c-0.555,0-1.213-0.242-1.213-0.795
		v-8.578c0-0.553,0.469-0.553,1.023-0.553h8.576c0.553,0,1.4,0,1.4,0.553v-0.053"/>
	<path fill="none" stroke="#54D1DB" stroke-width="3" stroke-miterlimit="10" d="M585.878,31.428c-0.555,0-0.711-0.242-0.711-0.795
		v-8.578c0-0.553,1.137-0.553,1.692-0.553h8.576c0.554,0-0.269,0-0.269,0.553v-0.053"/>
	<path fill="none" stroke="#54D1DB" stroke-width="3" stroke-miterlimit="10" d="M585.878,45.594c-0.555,0-0.711-0.077-0.711-0.629
		v-8.577c0-0.553,1.137-0.886,1.692-0.886h8.576c0.554,0-0.269,0.333-0.269,0.886v-0.386"/>
	<path fill="none" stroke="#54D1DB" stroke-width="3" stroke-miterlimit="10" d="M585.878,61.658c-0.555,0-0.711-1.014-0.711-1.565
		v-8.578c0-0.553,1.137-1.013,1.692-1.013h8.576c0.554,0-0.269,0.46-0.269,1.013v1.487"/>
	<path fill="none" stroke="#54D1DB" stroke-width="3" stroke-miterlimit="10" d="M585.878,75.824c-0.555,0-0.711-0.848-0.711-1.401
		v-8.578c0-0.552,1.137,0.657,1.692,0.657h8.576c0.554,0-0.269-1.209-0.269-0.657v1.157"/>
	<line fill="none" stroke="#54D1DB" stroke-width="3" stroke-miterlimit="10" x1="524.667" y1="13.502" x2="574.667" y2="13.502"/>
	<line fill="none" stroke="#54D1DB" stroke-width="3" stroke-miterlimit="10" x1="541.167" y1="-2.998" x2="541.167" y2="6.002"/>
	<line fill="none" stroke="#54D1DB" stroke-width="3" stroke-miterlimit="10" x1="584.167" y1="-2.998" x2="584.167" y2="6.002"/>
	<path fill="none" stroke="#54D1DB" stroke-width="3" stroke-miterlimit="10" d="M535.38,45.594c-0.556,0-0.213-0.077-0.213-0.629
		v-8.577c0-0.553,0.182-0.886,0.736-0.886h8.577c0.554,0-0.313,0.333-0.313,0.886v-0.386"/>
	<path fill="none" stroke="#54D1DB" stroke-width="3" stroke-miterlimit="10" d="M552.378,45.49c-0.553,0-1.211-0.181-1.211-0.735
		v-8.576c0-0.553,0.806-0.677,1.357-0.677h8.578c0.553,0,1.064,0.124,1.064,0.677v-0.177"/>
	<path fill="none" stroke="#54D1DB" stroke-width="3" stroke-miterlimit="10" d="M569.38,45.594c-0.555,0-1.213-0.077-1.213-0.629
		v-8.577c0-0.553,0.469-0.886,1.023-0.886h8.576c0.553,0,1.4,0.333,1.4,0.886v-0.386"/>
	<path fill="none" stroke="#54D1DB" stroke-width="3" stroke-miterlimit="10" d="M552.378,61.555c-0.553,0-1.211-1.118-1.211-1.671
		v-8.577c0-0.554,0.806-0.805,1.357-0.805h8.578c0.553,0,1.064,0.251,1.064,0.805v1.695"/>
	<path fill="none" stroke="#54D1DB" stroke-width="3" stroke-miterlimit="10" d="M569.38,61.658c-0.555,0-1.213-1.014-1.213-1.565
		v-8.578c0-0.553,0.469-1.013,1.023-1.013h8.576c0.553,0,1.4,0.46,1.4,1.013v1.487"/>
	<path fill="none" stroke="#54D1DB" stroke-width="3" stroke-miterlimit="10" d="M569.38,75.824c-0.555,0-1.213-0.848-1.213-1.401
		v-8.578c0-0.552,0.469,0.657,1.023,0.657h8.576c0.553,0,1.4-1.209,1.4-0.657v1.157"/>
</g>
<line fill="none" stroke="#54D1DB" stroke-width="3" stroke-miterlimit="10" x1="235.167" y1="-141.998" x2="235.167" y2="-114.998"/>
<line fill="none" stroke="#54D1DB" stroke-width="3" stroke-miterlimit="10" x1="235.102" y1="-115.934" x2="208.232" y2="-89.063"/>
<g>
	<polyline fill="none" stroke="#54D1DB" stroke-width="3" stroke-miterlimit="10" points="31.167,226.002 31.167,167.502 
		116.167,167.502 116.167,273.502 48.667,273.502 	"/>
	<line fill="none" stroke="#54D1DB" stroke-width="3" stroke-miterlimit="10" x1="73.167" y1="168.002" x2="73.167" y2="254.002"/>
	<path fill="none" stroke="#54D1DB" stroke-miterlimit="10" d="M87.905,185.486c-0.155-0.636-0.237-1.3-0.237-1.981
		c0-4.6,3.729-8.328,8.328-8.328c4.599,0,8.328,3.729,8.328,8.328c0,4.599-3.729,8.327-8.328,8.327"/>
	<path fill="none" stroke="#54D1DB" stroke-miterlimit="10" d="M60.92,180.591c0.148,0.609,0.227,1.246,0.227,1.9
		c0,4.413-3.577,7.99-7.99,7.99c-4.412,0-7.989-3.577-7.989-7.99c0-4.412,3.577-7.989,7.989-7.989"/>
	<g>
		<line fill="none" stroke="#54D1DB" stroke-miterlimit="10" x1="53.167" y1="187.002" x2="53.167" y2="180.002"/>
		<g>
			<line fill="none" stroke="#54D1DB" stroke-miterlimit="10" x1="53.396" y1="179.091" x2="50.707" y2="181.858"/>
			<line fill="none" stroke="#54D1DB" stroke-miterlimit="10" x1="55.651" y1="181.819" x2="52.883" y2="179.13"/>
		</g>
	</g>
	<g>
		<line fill="none" stroke="#54D1DB" stroke-miterlimit="10" x1="96.167" y1="179.002" x2="96.167" y2="186.002"/>
		<g>
			<line fill="none" stroke="#54D1DB" stroke-miterlimit="10" x1="95.961" y1="187.002" x2="98.651" y2="184.234"/>
			<line fill="none" stroke="#54D1DB" stroke-miterlimit="10" x1="93.707" y1="184.273" x2="96.474" y2="186.963"/>
		</g>
	</g>
</g>
<path fill="none" stroke="#54D1DB" stroke-width="3" stroke-miterlimit="10" d="M44.518,50.607c6.28-5.609,14.566-9.02,23.648-9.02
	c19.612,0,35.512,15.9,35.512,35.513"/>
<path fill="none" stroke="#54D1DB" stroke-width="3" stroke-miterlimit="10" d="M4.327,54.469c5.586-4.99,12.957-8.022,21.037-8.022
	c17.445,0,31.588,14.143,31.588,31.589"/>
<path fill="none" stroke="#54D1DB" stroke-width="3" stroke-miterlimit="10" d="M82.041,12.408
	c2.818,2.934,4.625,6.389,4.625,10.861c0,9.495-7.698,17.192-17.193,17.192c-9.496,0-17.193-7.697-17.193-17.192
	c0-7.247,3.26-12.51,9.476-14.941"/>
<path fill="none" stroke="#54D1DB" stroke-width="3" stroke-miterlimit="10" d="M37.846,19.628c2.562,2.668,4.205,5.809,4.205,9.874
	c0,8.636-6.999,15.633-15.631,15.633c-8.635,0-15.633-6.997-15.633-15.633c0-6.588,2.965-11.373,8.617-13.582"/>
<path fill="none" stroke="#54D1DB" stroke-width="3" stroke-miterlimit="10" d="M99.326,59.991c4.581-4.092,10.626-6.58,17.251-6.58
	c14.308,0,25.907,11.599,25.907,25.908"/>
<path fill="none" stroke="#54D1DB" stroke-width="3" stroke-miterlimit="10" d="M112.48,25.985"/>
<path fill="none" stroke="#54D1DB" stroke-width="3" stroke-miterlimit="10" d="M127.856,29.555c2.255,2.347,3.701,5.111,3.701,8.69
	c0,7.599-6.16,13.758-13.758,13.758c-7.599,0-13.758-6.159-13.758-13.758c0-5.8,2.608-10.011,7.583-11.955"/>
<circle fill="#54D1DB" cx="742.667" cy="-286.002" r="72"/>
<g opacity="0.18">
	<g>
		<path fill="#FAF9F7" d="M696.934-285.48c7.374-5.568,13.659-12.567,21.5-17.5c-1.714-1.317-3.428-2.635-5.142-3.953
			c-3.192,9.493-12.027,15.616-16.147,24.664c-1.624,3.566,2.428,7.02,5.497,4.242c10.874-9.844,21.771-19.985,34.792-26.953
			c-1.756-1.007-3.511-2.015-5.267-3.022c-0.01,6.729-9.068,12.729-12.975,17.525c-7.527,9.242-14.433,19.191-20.048,29.708
			c-1.633,3.059,1.67,6.584,4.789,4.789c16.863-9.705,28.159-26.018,44-37c-1.597-1.596-3.192-3.192-4.789-4.789
			c-8.777,14.878-22.893,25.682-32.5,40c-2.366,3.527,2.63,6.617,5.497,4.242c13.411-11.108,24.103-25.573,39.292-34.453
			c-1.597-1.596-3.192-3.192-4.789-4.789c-7.139,16.708-23.607,27.604-28.853,45.336c-0.963,3.255,2.513,5.069,5.142,3.953
			c12.558-5.33,21.335-16.886,34.164-21.647c-1.317-1.714-2.636-3.428-3.953-5.142c-4.595,8.122-11.873,14.324-17.952,21.292
			c-2.954,3.385,1.977,8.357,4.949,4.95c6.477-7.422,14.149-14.051,19.048-22.708c1.407-2.487-0.94-6.259-3.953-5.142
			c-13.493,5.007-22.698,16.777-35.836,22.353c1.714,1.317,3.428,2.635,5.142,3.953c5.018-16.964,21.272-27.575,28.147-43.664
			c1.292-3.024-1.479-6.724-4.789-4.789c-15.74,9.202-26.821,24.045-40.708,35.547c1.832,1.414,3.664,2.828,5.497,4.242
			c9.609-14.322,23.698-25.081,32.5-40c1.704-2.89-1.818-6.848-4.789-4.789c-15.83,10.974-27.2,27.332-44,37
			c1.597,1.596,3.192,3.192,4.789,4.789c5.675-10.631,12.609-21.44,20.755-30.366c5.169-5.665,13.21-12.006,13.223-20.401
			c0.004-2.729-2.954-4.259-5.267-3.022c-13.522,7.236-24.915,17.824-36.208,28.047c1.832,1.414,3.664,2.828,5.497,4.242
			c4.398-9.659,13.41-16.099,16.853-26.336c0.979-2.913-2.609-5.546-5.142-3.953c-7.877,4.956-14.108,11.918-21.5,17.5
			C689.847-288.84,693.328-282.757,696.934-285.48L696.934-285.48z"/>
	</g>
</g>
<path fill="#FAF9F7" d="M781.18-313.415c-13.054-1.122-25.651-5.344-36.742-12.316c-0.583-0.367-1.324-0.367-1.907,0
	c-11.091,6.973-23.688,11.199-36.742,12.323c-0.928,0.079-1.639,0.856-1.636,1.788v22.017c1.194-0.032,2.385-0.059,3.575-0.073
	v-20.318c12.67-1.34,24.884-5.479,35.756-12.119c10.873,6.637,23.086,10.775,35.756,12.113v22.354
	c-0.013,17.468-9.45,33.568-24.685,42.113l-11.071,6.202l-11.071-6.202c-0.021-0.012-0.041-0.025-0.062-0.037
	c-0.151,0.229-0.308,0.453-0.458,0.685c-0.497,0.767-0.979,1.548-1.457,2.33c0.078,0.045,0.151,0.096,0.23,0.14l11.945,6.69
	c0.543,0.305,1.204,0.305,1.747,0l11.944-6.69c16.363-9.176,26.501-26.47,26.513-45.23v-23.98
	C782.818-312.559,782.107-313.336,781.18-313.415z"/>
<path fill="#54D1DB" d="M676.728-239.185c0-6.604,0-13.207,0-19.81"/>
<path fill="#54D1DB" d="M748.239-236.647"/>
<path fill="#FAF9F7" d="M732.089-284.688c-0.667-0.78-1.841-0.873-2.621-0.206c-0.781,0.666-0.873,1.841-0.206,2.62l9.816,11.496
	c0.656,0.768,1.805,0.872,2.586,0.235l22.864-18.602c0.797-0.646,0.917-1.817,0.269-2.614c-0.647-0.796-1.818-0.917-2.614-0.27
	l-21.456,17.455L732.089-284.688z M732.089-284.688"/>
<circle fill="#54D1DB" cx="742.667" cy="-115.998" r="72"/>
<path fill="none" stroke="#54D1DB" stroke-width="3" stroke-miterlimit="10" d="M944.167-86.998"/>
<polyline fill="none" stroke="#FAF9F7" stroke-width="3" stroke-miterlimit="10" points="774.667,-73.498 707.167,-73.498 
	707.167,-162.498 774.667,-162.498 "/>
<rect x="714.168" y="-156.995" fill="none" width="28" height="28"/>
<text transform="matrix(1 0 0 1 714.168 -138.4956)" fill="#FAF9F7" font-family="'Poppins-Bold'" font-size="25">$</text>
<line fill="none" stroke="#FAF9F7" stroke-width="3" stroke-miterlimit="10" x1="735.667" y1="-144.498" x2="770.667" y2="-144.498"/>
<line fill="none" stroke="#FAF9F7" stroke-width="3" stroke-miterlimit="10" x1="719.667" y1="-128.498" x2="771.667" y2="-128.498"/>
<line fill="none" stroke="#FAF9F7" stroke-width="3" stroke-miterlimit="10" x1="719.667" y1="-117.498" x2="771.667" y2="-117.498"/>
<line fill="none" stroke="#FAF9F7" stroke-width="3" stroke-miterlimit="10" x1="719.667" y1="-107.498" x2="771.667" y2="-107.498"/>
<line fill="none" stroke="#FAF9F7" stroke-width="3" stroke-miterlimit="10" x1="719.667" y1="-96.498" x2="771.667" y2="-96.498"/>
<g opacity="0.18">
	<g>
		<path fill="#FAF9F7" d="M758.242-61.982c-5.293-8.716-11.938-16.54-16.645-25.616c-1.317,1.714-2.636,3.428-3.953,5.142
			c8.741,3.55,13.379,13.647,21.556,18.346c2.867,1.647,6.916-1.814,4.789-4.789c-9.694-13.555-19.455-27.174-26.373-42.409
			c-1.008,1.756-2.015,3.511-3.022,5.267c2.882-0.311,5.917,4.053,7.599,5.949c2.445,2.757,4.635,5.729,7.096,8.471
			c7.812,8.704,17.15,16.688,26.794,23.283c3.145,2.15,6.183-1.898,4.789-4.789c-9.21-19.101-24.652-33.96-35.013-52.328
			c-1.597,1.596-3.192,3.192-4.789,4.789c13.635,10.345,22.337,25.916,35.25,37.095c2.86,2.477,7.804-0.743,5.497-4.241
			c-10.628-16.115-24.381-29.984-32.916-47.464c-1.597,1.596-3.192,3.192-4.789,4.789c15.3,8.212,23.033,26.731,39.877,32.613
			c2.399,0.838,5.231-1.859,4.306-4.306c-5.658-14.955-16.744-27.077-21.929-42.219c-1.714,1.318-3.428,2.635-5.142,3.953
			c7.607,5.514,12.951,14,19.146,20.942c3.011,3.375,7.944-1.593,4.949-4.95c-6.669-7.474-12.369-16.098-20.562-22.037
			c-2.48-1.798-6.094,1.171-5.142,3.953c5.206,15.203,16.275,27.276,21.929,42.219c1.436-1.436,2.87-2.87,4.306-4.306
			c-7.725-2.697-13.555-9.566-19.034-15.327c-5.809-6.104-11.657-12.547-19.171-16.58c-3.211-1.724-6.314,1.663-4.789,4.789
			c8.537,17.484,22.287,31.347,32.916,47.464c1.833-1.414,3.665-2.828,5.497-4.241c-13.396-11.598-22.492-27.436-36.666-38.19
			c-2.95-2.238-6.381,1.965-4.789,4.789c10.36,18.368,25.804,33.227,35.013,52.328c1.597-1.597,3.192-3.192,4.789-4.789
			c-9.842-6.729-19.535-15.14-27.204-24.305c-4.081-4.876-10.276-15.165-17.817-14.354c-2.771,0.298-4.183,2.711-3.022,5.267
			c6.918,15.235,16.68,28.854,26.373,42.409c1.597-1.597,3.192-3.192,4.789-4.789c-8.864-5.093-13.483-15.094-23.228-19.051
			c-3.083-1.252-5.212,2.714-3.953,5.142c4.707,9.076,11.353,16.9,16.645,25.616C754.536-54.598,760.592-58.113,758.242-61.982
			L758.242-61.982z"/>
	</g>
</g>
<circle fill="#54D1DB" cx="917.667" cy="-114.998" r="72"/>
<path fill="none" stroke="#FAF9F7" stroke-width="3" stroke-miterlimit="10" d="M964.692-116.074
	c0.014,0.457,0.019,0.917,0.019,1.377c0,26.342-21.353,47.696-47.694,47.696s-47.696-21.354-47.696-47.696
	c0-26.341,21.354-47.696,47.696-47.696c2.46,0,4.877,0.187,7.237,0.546"/>
<circle fill="#FAF9F7" cx="899.515" cy="-127.768" r="4.438"/>
<circle fill="#FAF9F7" cx="931.409" cy="-126.687" r="4.438"/>
<path fill="none" stroke="#FAF9F7" stroke-width="3" stroke-miterlimit="10" d="M941.185-99.701
	c-5.276,8.307-14.235,13.771-24.401,13.771c-10.084,0-18.981-5.379-24.272-13.573"/>
<g opacity="0.18">
	<g>
		<path fill="#FAF9F7" d="M934.009-100.015c-5.113-7.301-11.619-13.583-16.107-21.314c-1.318,1.714-2.636,3.428-3.953,5.142
			c8.955,3.365,14.542,12.09,23.055,16.342c3.646,1.82,6.808-2.448,4.241-5.497c-9.102-10.814-18.438-21.674-24.715-34.443
			c-1.008,1.755-2.015,3.511-3.022,5.267c3.547,0.122,6.697,3.684,9.066,5.965c2.852,2.747,5.449,5.697,8.495,8.238
			c8.385,6.997,17.064,13.648,26.527,19.133c3.124,1.81,6.408-1.736,4.789-4.789c-8.778-16.547-24.06-28.028-34.096-43.648
			c-1.597,1.596-3.192,3.192-4.789,4.789c13.975,8.933,23.874,22.876,37.286,32.595c2.763,2.001,6.913-2.028,4.789-4.789
			c-10.397-13.511-24.134-24.567-32.297-39.721c-1.597,1.596-3.192,3.192-4.789,4.789c15.8,7.422,25.658,23.573,42.532,29.202
			c2.386,0.796,5.26-1.835,4.306-4.306c-4.854-12.569-15.74-21.736-20.021-34.516c-1.714,1.318-3.428,2.635-5.142,3.953
			c7.617,4.686,13.321,11.917,19.781,17.987c3.286,3.087,8.245-1.854,4.949-4.95c-6.92-6.5-13.031-14.058-21.197-19.081
			c-2.539-1.562-6.124,1.019-5.142,3.953c4.322,12.904,15.172,21.958,20.021,34.516c1.436-1.436,2.87-2.871,4.306-4.306
			c-16.058-5.355-25.688-21.369-40.86-28.496c-3.12-1.466-6.537,1.543-4.789,4.789c8.203,15.228,21.87,26.171,32.297,39.721
			c1.597-1.597,3.192-3.192,4.789-4.789c-13.425-9.728-23.251-23.623-37.286-32.594c-2.935-1.876-6.676,1.851-4.789,4.789
			c10.035,15.617,25.339,27.141,34.096,43.648c1.597-1.597,3.192-3.192,4.789-4.789c-10.058-5.829-20.171-12.873-28.473-21.053
			c-5.289-5.211-11.043-12.96-19.149-13.238c-2.821-0.097-4.136,3.001-3.022,5.267c6.527,13.279,16.346,24.614,25.811,35.859
			c1.413-1.832,2.827-3.664,4.241-5.497c-9.131-4.561-14.988-13.388-24.727-17.047c-2.989-1.123-5.392,2.664-3.953,5.142
			c4.499,7.747,10.99,14.008,16.107,21.314C930.532-92.814,936.605-96.308,934.009-100.015L934.009-100.015z"/>
	</g>
</g>
<path fill="none" stroke="#54D1DB" stroke-width="3" stroke-miterlimit="10" d="M92.167-92.998"/>
<path fill="none" stroke="#54D1DB" stroke-width="3" stroke-miterlimit="10" d="M112.692-122.074
	c0.014,0.457,0.019,0.917,0.019,1.377c0,26.342-21.353,47.696-47.694,47.696S17.32-94.355,17.32-120.697
	c0-26.341,21.354-47.696,47.696-47.696c2.46,0,4.877,0.187,7.237,0.546"/>
<circle fill="#54D1DB" cx="47.515" cy="-133.768" r="4.438"/>
<circle fill="#54D1DB" cx="79.409" cy="-132.687" r="4.438"/>
<path fill="none" stroke="#54D1DB" stroke-width="3" stroke-miterlimit="10" d="M89.185-105.701
	C83.908-97.395,74.949-91.93,64.783-91.93c-10.084,0-18.981-5.379-24.272-13.573"/>
<g opacity="0.18">
	<g>
		<path fill="#2CB1BC" d="M88.435-101.171c-5.183-7.4-11.777-13.768-16.327-21.605c-1.317,1.714-2.635,3.428-3.953,5.141
			c9.09,3.398,14.742,12.27,23.38,16.57c3.647,1.815,6.809-2.446,4.242-5.497c-9.228-10.966-18.697-21.977-25.061-34.924
			c-1.007,1.755-2.015,3.511-3.022,5.267c3.612,0.124,6.812,3.737,9.224,6.06c2.891,2.784,5.524,5.774,8.612,8.351
			c8.497,7.091,17.292,13.83,26.88,19.388c3.125,1.811,6.407-1.736,4.789-4.789c-8.892-16.777-24.393-28.408-34.562-44.246
			c-1.596,1.596-3.192,3.192-4.789,4.789c14.166,9.056,24.2,23.188,37.795,33.041c2.763,2.001,6.913-2.028,4.789-4.789
			c-10.54-13.696-24.463-24.901-32.739-40.263c-1.596,1.596-3.192,3.192-4.789,4.789c16.016,7.513,25.999,23.903,43.103,29.596
			c2.388,0.794,5.258-1.834,4.306-4.306c-4.911-12.745-15.966-22.028-20.296-34.987c-1.714,1.318-3.428,2.635-5.142,3.953
			c7.726,4.751,13.51,12.085,20.062,18.241c3.286,3.087,8.246-1.854,4.95-4.95c-7.012-6.587-13.204-14.246-21.479-19.334
			c-2.541-1.562-6.122,1.02-5.142,3.953c4.372,13.084,15.39,22.254,20.296,34.987c1.435-1.436,2.87-2.871,4.306-4.306
			c-16.287-5.42-26.043-21.671-41.431-28.89c-3.12-1.464-6.538,1.542-4.789,4.789c8.314,15.436,22.169,26.529,32.739,40.263
			c1.596-1.597,3.192-3.192,4.789-4.789c-13.608-9.86-23.569-23.945-37.795-33.04c-2.935-1.876-6.675,1.851-4.789,4.789
			c10.166,15.834,25.69,27.509,34.562,44.246c1.596-1.597,3.192-3.192,4.789-4.789c-10.199-5.911-20.453-13.055-28.871-21.349
			c-5.35-5.271-11.177-13.125-19.378-13.405c-2.821-0.096-4.136,3.001-3.022,5.267c6.614,13.457,16.564,24.943,26.155,36.34
			c1.414-1.832,2.828-3.664,4.242-5.497c-9.257-4.608-15.178-13.583-25.052-17.275c-2.989-1.117-5.393,2.661-3.953,5.141
			c4.559,7.854,11.14,14.199,16.327,21.605C84.959-93.971,91.032-97.464,88.435-101.171L88.435-101.171z"/>
	</g>
</g>
<polyline fill="none" stroke="#54D1DB" stroke-width="3" stroke-miterlimit="10" points="550.167,199.002 550.167,167.502 
	605.167,167.502 605.167,264.502 577.667,264.502 "/>
<circle fill="#54D1DB" cx="593.79" cy="219.879" r="3.123"/>
<g>
	
		<line fill="none" stroke="#54D1DB" stroke-width="3" stroke-miterlimit="10" x1="562.667" y1="228.502" x2="517.667" y2="228.502"/>
	
		<line fill="none" stroke="#54D1DB" stroke-width="3" stroke-miterlimit="10" x1="516.667" y1="229.615" x2="534.509" y2="212.277"/>
	
		<line fill="none" stroke="#54D1DB" stroke-width="3" stroke-miterlimit="10" x1="534.258" y1="246.151" x2="516.919" y2="228.311"/>
</g>
<polyline fill="none" stroke="#54D1DB" stroke-width="3" stroke-miterlimit="10" points="726.167,198.002 726.167,166.502 
	781.167,166.502 781.167,263.502 753.667,263.502 "/>
<circle fill="#54D1DB" cx="769.79" cy="216.879" r="3.123"/>
<line fill="none" stroke="#54D1DB" stroke-width="3" stroke-miterlimit="10" x1="692.667" y1="226.502" x2="737.667" y2="226.502"/>
<line fill="none" stroke="#54D1DB" stroke-width="3" stroke-miterlimit="10" x1="738.667" y1="225.813" x2="720.825" y2="243.151"/>
<line fill="none" stroke="#54D1DB" stroke-width="3" stroke-miterlimit="10" x1="721.076" y1="209.277" x2="738.415" y2="227.118"/>
<g>
	<circle fill="#54D1DB" cx="-95.775" cy="-285.749" r="71.747"/>
	<g>
		
			<line fill="none" stroke="#FAF9F7" stroke-width="3" stroke-miterlimit="10" x1="-116.333" y1="-259.498" x2="-62.333" y2="-259.498"/>
		
			<line fill="none" stroke="#FAF9F7" stroke-width="3" stroke-miterlimit="10" x1="-139.333" y1="-259.498" x2="-150.333" y2="-259.498"/>
		<path fill="none" stroke="#FAF9F7" stroke-width="3" stroke-miterlimit="10" d="M-46.774-258.092
			c-1.462,4.756-6.502,7.426-11.257,5.964C-63.648-253.853-50.055-247.42-46.774-258.092c3.111-10.128-9.996-12.494-5.964-11.255
			C-47.985-267.886-45.312-262.847-46.774-258.092z"/>
		<path fill="none" stroke="#FAF9F7" stroke-width="3" stroke-miterlimit="10" d="M-122.033-257.146
			c-1.463,4.756-6.502,7.427-11.256,5.965C-138.907-252.906-125.313-246.473-122.033-257.146
			c3.112-10.127-9.997-12.493-5.965-11.254C-123.244-266.938-120.573-261.9-122.033-257.146z"/>
		<g>
			<path fill="none" stroke="#FAF9F7" stroke-width="3" stroke-miterlimit="10" d="M-81.104-277.652l0.138-14.43
				c0-13.81-1.722-12.416,7.032-12.416h3.94c4.352,0,15.812,14.199,15.812,21.293"/>
			<path fill="none" stroke="#FAF9F7" stroke-width="3" stroke-miterlimit="10" d="M-54.937-284.59l8.942,0.102
				c9.646,0,8.93,0.69,8.93,10.574l-0.095,2.117c0,4.911,1.063,9.222-3.895,9.222"/>
		</g>
		<polyline fill="none" stroke="#FAF9F7" stroke-width="3" stroke-miterlimit="10" points="-150.333,-317.498 -85.833,-317.498 
			-85.833,-290.998 		"/>
	</g>
</g>
<g>
	<ellipse fill="#54D1DB" cx="-255.623" cy="-285.609" rx="71.672" ry="71.611"/>
	<g>
		<path fill="none" stroke="#FAF9F7" stroke-width="3" stroke-miterlimit="10" d="M-284.015-276.49
			c7.228-6.451,16.767-10.372,27.219-10.372c22.573,0,40.875,18.286,40.875,40.841"/>
		
			<ellipse fill="none" stroke="#FAF9F7" stroke-width="3" stroke-miterlimit="10" cx="-256.803" cy="-307.494" rx="20.429" ry="20.411"/>
	</g>
</g>
<g>
	<circle fill="#54D1DB" cx="-95.333" cy="215.002" r="72"/>
	<g>
		<line fill="none" stroke="#FAF9F7" stroke-width="3" stroke-miterlimit="10" x1="-124" y1="175.551" x2="-78.171" y2="179.297"/>
		
			<line fill="none" stroke="#FAF9F7" stroke-width="3" stroke-miterlimit="10" x1="-123.805" y1="174.982" x2="-138.799" y2="197.229"/>
		
			<line fill="none" stroke="#FAF9F7" stroke-width="3" stroke-miterlimit="10" x1="-77.875" y1="179.181" x2="-48.118" y2="214.236"/>
		
			<line fill="none" stroke="#FAF9F7" stroke-width="3" stroke-miterlimit="10" x1="-122.8" y1="175.725" x2="-93.044" y2="210.779"/>
		
			<line fill="none" stroke="#FAF9F7" stroke-width="3" stroke-miterlimit="10" x1="-93.625" y1="210.071" x2="-47.796" y2="213.817"/>
		
			<line fill="none" stroke="#FAF9F7" stroke-width="3" stroke-miterlimit="10" x1="-92.816" y1="210.131" x2="-101.085" y2="222.404"/>
		
			<line fill="none" stroke="#FAF9F7" stroke-width="3" stroke-miterlimit="10" x1="-48.002" y1="214.183" x2="-73.838" y2="253.137"/>
		
			<line fill="none" stroke="#FAF9F7" stroke-width="3" stroke-miterlimit="10" x1="-72.299" y1="252.738" x2="-122.455" y2="252.844"/>
	</g>
</g>
<circle fill="#54D1DB" cx="-255.681" cy="215.654" r="71.652"/>
<polyline fill="none" stroke="#F9F9F9" stroke-width="3" stroke-miterlimit="10" points="-272.833,200.002 -272.833,169.502 
	-221.833,169.502 -221.833,262.502 -247.333,262.502 "/>
<circle fill="#F9F9F9" cx="-231.21" cy="219.879" r="3.123"/>
<g>
	
		<line fill="none" stroke="#F9F9F9" stroke-width="3" stroke-miterlimit="10" x1="-260.333" y1="228.502" x2="-305.333" y2="228.502"/>
	
		<line fill="none" stroke="#F9F9F9" stroke-width="3" stroke-miterlimit="10" x1="-306.333" y1="229.615" x2="-288.491" y2="212.277"/>
	
		<line fill="none" stroke="#F9F9F9" stroke-width="3" stroke-miterlimit="10" x1="-288.742" y1="246.151" x2="-306.081" y2="228.311"/>
</g>
<circle fill="#54D1DB" cx="-255.833" cy="41.502" r="71.5"/>
<circle fill="#54D1DB" cx="-255.333" cy="-121.998" r="72"/>
<g>
	<polyline fill="none" stroke="#FAF9F7" stroke-width="3" stroke-miterlimit="10" points="-294.833,46.002 -294.833,-6.498 
		-218.833,-6.498 -218.833,88.502 -279.333,88.502 	"/>
	
		<line fill="none" stroke="#FAF9F7" stroke-width="3" stroke-miterlimit="10" x1="-256.833" y1="-5.998" x2="-256.833" y2="71.002"/>
	<path fill="none" stroke="#FAF9F7" stroke-miterlimit="10" d="M-244.103,9.582c-0.139-0.568-0.212-1.162-0.212-1.771
		c0-4.112,3.334-7.446,7.446-7.446s7.446,3.334,7.446,7.446c0,4.111-3.333,7.445-7.446,7.445"/>
	<path fill="none" stroke="#FAF9F7" stroke-miterlimit="10" d="M-268.231,5.205c0.133,0.545,0.203,1.114,0.203,1.699
		c0,3.945-3.198,7.145-7.144,7.145c-3.945,0-7.144-3.199-7.144-7.145s3.198-7.144,7.144-7.144"/>
	<g>
		<line fill="none" stroke="#FAF9F7" stroke-miterlimit="10" x1="-274.833" y1="11.002" x2="-274.833" y2="5.002"/>
		<g>
			<line fill="none" stroke="#FAF9F7" stroke-miterlimit="10" x1="-274.958" y1="3.863" x2="-277.363" y2="6.338"/>
			<line fill="none" stroke="#FAF9F7" stroke-miterlimit="10" x1="-272.942" y1="6.304" x2="-275.417" y2="3.898"/>
		</g>
	</g>
	<g>
		<line fill="none" stroke="#FAF9F7" stroke-miterlimit="10" x1="-236.833" y1="4.002" x2="-236.833" y2="10.002"/>
		<g>
			<line fill="none" stroke="#FAF9F7" stroke-miterlimit="10" x1="-236.9" y1="10.938" x2="-234.495" y2="8.463"/>
			<line fill="none" stroke="#FAF9F7" stroke-miterlimit="10" x1="-238.916" y1="8.498" x2="-236.441" y2="10.902"/>
		</g>
	</g>
</g>
<g>
	<path fill="none" stroke="#F9F9F9" stroke-width="3" stroke-miterlimit="10" d="M-285.019-107.329
		c7.291-6.514,16.912-10.472,27.456-10.472c22.77,0,41.229,18.459,41.229,41.229"/>
	<path fill="none" stroke="#F9F9F9" stroke-width="3" stroke-miterlimit="10" d="M-265.933-155.772"/>
	<g>
		<path fill="none" stroke="#F9F9F9" stroke-width="3" stroke-miterlimit="10" d="M-243.625-150.594
			c3.272,3.406,5.37,7.417,5.37,12.61c0,11.024-8.937,19.961-19.961,19.961c-11.024,0-19.961-8.937-19.961-19.961
			c0-8.414,3.785-14.523,11.001-17.346"/>
		<g>
			
				<line fill="none" stroke="#F9F9F9" stroke-width="3" stroke-miterlimit="10" x1="-240.657" y1="-149.628" x2="-286.931" y2="-158.764"/>
			<path fill="none" stroke="#F9F9F9" stroke-width="3" stroke-miterlimit="10" d="M-270.356-153.911
				c0.467-8.052,8.558-11.525,16.391-11.046c7.833,0.48,13.802,7.396,13.335,15.447c-0.08,1.407,0.355,0.14-0.08,1.407"/>
		</g>
	</g>
</g>
<ellipse fill="#54D1DB" cx="70.667" cy="-286.499" rx="72" ry="71.501"/>
<g>
	<g>
		
			<line fill="none" stroke="#FAF9F7" stroke-width="3" stroke-miterlimit="10" x1="54.925" y1="-324.471" x2="98.995" y2="-320.869"/>
		
			<line fill="none" stroke="#FAF9F7" stroke-width="3" stroke-miterlimit="10" x1="55.112" y1="-325.018" x2="40.694" y2="-303.624"/>
		
			<line fill="none" stroke="#FAF9F7" stroke-width="3" stroke-miterlimit="10" x1="99.28" y1="-320.98" x2="127.895" y2="-287.271"/>
		
			<line fill="none" stroke="#FAF9F7" stroke-width="3" stroke-miterlimit="10" x1="56.079" y1="-324.304" x2="84.692" y2="-290.595"/>
		
			<line fill="none" stroke="#FAF9F7" stroke-width="3" stroke-miterlimit="10" x1="84.134" y1="-291.275" x2="128.204" y2="-287.673"/>
		
			<line fill="none" stroke="#FAF9F7" stroke-width="3" stroke-miterlimit="10" x1="84.912" y1="-291.219" x2="76.96" y2="-279.416"/>
		
			<line fill="none" stroke="#FAF9F7" stroke-width="3" stroke-miterlimit="10" x1="128.006" y1="-287.322" x2="103.161" y2="-249.863"/>
		
			<line fill="none" stroke="#FAF9F7" stroke-width="3" stroke-miterlimit="10" x1="104.642" y1="-250.246" x2="56.411" y2="-250.145"/>
	</g>
	<g>
		
			<line fill="none" stroke="#FAF9F7" stroke-width="3" stroke-miterlimit="10" x1="13.667" y1="-279.498" x2="58.667" y2="-279.498"/>
		
			<line fill="none" stroke="#FAF9F7" stroke-width="3" stroke-miterlimit="10" x1="60.134" y1="-278.385" x2="42.292" y2="-295.723"/>
		
			<line fill="none" stroke="#FAF9F7" stroke-width="3" stroke-miterlimit="10" x1="42.543" y1="-261.849" x2="59.882" y2="-279.689"/>
	</g>
</g>
<circle fill="#54D1DB" cx="-427.833" cy="214.502" r="71.5"/>
<circle fill="#F9F9F9" cx="-403.21" cy="213.879" r="3.123"/>
<line fill="none" stroke="#F9F9F9" stroke-width="3" stroke-miterlimit="10" x1="-480.333" y1="223.502" x2="-435.333" y2="223.502"/>
<line fill="none" stroke="#F9F9F9" stroke-width="3" stroke-miterlimit="10" x1="-434.333" y1="222.813" x2="-452.175" y2="240.151"/>
<line fill="none" stroke="#F9F9F9" stroke-width="3" stroke-miterlimit="10" x1="-451.924" y1="206.277" x2="-434.585" y2="224.118"/>
<polyline fill="none" stroke="#F9F9F9" stroke-width="3" stroke-miterlimit="10" points="-442.833,199.002 -442.833,168.502 
	-391.833,168.502 -391.833,261.502 -417.333,261.502 "/>
<circle fill="#54D1DB" cx="-427.333" cy="42.002" r="72"/>
<g>
	<path fill="none" stroke="#F9F9F9" stroke-width="3" stroke-miterlimit="10" d="M-382.698,29.604
		c0.848,3.47,1.296,7.096,1.296,10.826c0,25.131-20.372,45.503-45.503,45.503c-25.13,0-45.503-20.372-45.503-45.503
		s20.373-45.503,45.503-45.503"/>
	
		<line fill="none" stroke="#F9F9F9" stroke-width="3" stroke-miterlimit="10" x1="-423.833" y1="15.002" x2="-423.833" y2="42.002"/>
	
		<line fill="none" stroke="#F9F9F9" stroke-width="3" stroke-miterlimit="10" x1="-423.898" y1="41.066" x2="-450.768" y2="67.937"/>
</g>
<rect x="-498.891" y="-299.62" fill="none" width="70.997" height="67.447"/>
<text transform="matrix(1 0 0 1 -483.8154 -248.561)"><tspan x="0" y="0" font-family="'Poppins-Bold'" font-size="69">1</tspan><tspan x="24.563" y="0" fill="#54D1DB" font-family="'Poppins-Bold'" font-size="69">.</tspan></text>
<rect x="-498.145" y="-198.147" fill="none" width="70.997" height="67.447"/>
<text transform="matrix(1 0 0 1 -490.3154 -147.0884)"><tspan x="0" y="0" font-family="'Poppins-Bold'" font-size="69">2</tspan><tspan x="39.054" y="0" fill="#54D1DB" font-family="'Poppins-Bold'" font-size="69">.</tspan></text>
<rect x="-498.891" y="-101.109" fill="none" width="70.997" height="67.448"/>
<text transform="matrix(1 0 0 1 -492.4062 -50.0508)"><tspan x="0" y="0" font-family="'Poppins-Bold'" font-size="69">3</tspan><tspan x="41.745" y="0" fill="#54D1DB" font-family="'Poppins-Bold'" font-size="69">.</tspan></text>
<g>
	<path fill="#54D1DB" d="M262.392,13.469c-3.795,0.451-7.464,0.317-11.095,0.007c-3.625-0.334-7.202-0.897-10.735-1.657
		c-3.534-0.759-7.023-1.724-10.462-2.917c-3.435-1.215-6.831-2.611-10.1-4.597c3.797-0.458,7.466-0.327,11.096-0.015
		c3.625,0.334,7.202,0.896,10.733,1.665c3.532,0.768,7.021,1.731,10.461,2.925C255.725,10.097,259.122,11.49,262.392,13.469z"/>
</g>
<path fill="#54D1DB" d="M236.875,8.221c0.431-7.421,7.888-10.622,15.107-10.181c7.219,0.442,12.721,6.816,12.291,14.237
	c-0.074,1.297,0.327,0.129-0.074,1.297"/>
<g>
	<path fill="#54D1DB" d="M216.601,19.473c-3.711,0.482-7.298,0.379-10.847,0.1c-3.544-0.303-7.04-0.836-10.494-1.565
		s-6.864-1.663-10.225-2.826c-3.357-1.186-6.676-2.552-9.869-4.508c3.712-0.489,7.3-0.389,10.849-0.107
		c3.544,0.304,7.04,0.836,10.492,1.573s6.862,1.671,10.224,2.835C210.087,16.16,213.406,17.523,216.601,19.473z"/>
</g>
<path fill="#54D1DB" d="M192.098,14.434c0.414-7.126,7.574-10.2,14.507-9.776c6.932,0.425,12.215,6.546,11.803,13.672
	c-0.071,1.245,0.314,0.124-0.071,1.245"/>
<g>
	<path fill="#54D1DB" d="M40.392,23.469c-3.641,0.448-7.149,0.312-10.618,0.002c-3.463-0.335-6.875-0.898-10.241-1.659
		c-3.367-0.759-6.688-1.723-9.957-2.915C6.312,17.682,3.089,16.288,0,14.305c3.643-0.456,7.152-0.322,10.62-0.01
		c3.463,0.335,6.875,0.898,10.239,1.667c3.365,0.767,6.686,1.73,9.955,2.923C34.077,20.102,37.301,21.493,40.392,23.469z"/>
</g>
<path fill="#54D1DB" d="M14.875,18.221C15.306,10.8,22.763,7.599,29.982,8.04c7.219,0.442,12.721,6.816,12.291,14.237
	c-0.074,1.297,0.327,0.129-0.074,1.297"/>
<g>
	<path fill="#54D1DB" d="M82.392,15.471c-3.663,0.448-7.194,0.313-10.686,0.002c-3.486-0.334-6.921-0.897-10.312-1.658
		c-3.391-0.759-6.735-1.723-10.028-2.916c-3.288-1.214-6.536-2.608-9.65-4.592c3.665-0.456,7.196-0.323,10.688-0.01
		c3.486,0.334,6.921,0.897,10.31,1.666c3.389,0.767,6.733,1.73,10.026,2.924C76.027,12.103,79.275,13.495,82.392,15.471z"/>
</g>
<path fill="#54D1DB" d="M56.875,10.221C57.306,2.8,64.763-0.401,71.982,0.04c7.219,0.442,12.721,6.816,12.291,14.237
	c-0.074,1.297,0.327,0.129-0.074,1.297"/>
<g>
	<path fill="#54D1DB" d="M128.774,31.813c-3.139,0.508-6.135,0.436-9.088,0.188c-2.947-0.271-5.838-0.771-8.682-1.466
		c-2.843-0.694-5.637-1.592-8.374-2.718c-2.732-1.146-5.42-2.473-7.964-4.386c3.141-0.516,6.137-0.445,9.09-0.195
		c2.947,0.271,5.838,0.771,8.68,1.474c2.841,0.702,5.635,1.6,8.372,2.726C123.54,28.584,126.229,29.908,128.774,31.813z"/>
</g>
<path fill="#54D1DB" d="M105.435,27.013c0.394-6.787,7.214-9.715,13.818-9.312c6.603,0.404,11.635,6.234,11.242,13.022
	c-0.068,1.187,0.299,0.118-0.068,1.187"/>
<g>
	<circle fill="#54D1DB" cx="917.667" cy="41.002" r="72"/>
	<line fill="none" stroke="#FAF9F7" stroke-width="3" stroke-miterlimit="10" x1="860.667" y1="66.502" x2="974.667" y2="66.502"/>
	<polyline fill="none" stroke="#FAF9F7" stroke-width="3" stroke-miterlimit="10" points="862.167,66.002 862.167,50.502 
		879.667,50.502 	"/>
	<polyline fill="none" stroke="#FAF9F7" stroke-width="3" stroke-miterlimit="10" points="954.667,50.502 973.167,50.502 
		973.167,67.002 	"/>
	<path fill="none" stroke="#FAF9F7" stroke-width="3" stroke-miterlimit="10" d="M884.167,35.002"/>
	<polyline fill="none" stroke="#FAF9F7" stroke-width="3" stroke-miterlimit="10" points="920.167,31.002 920.167,9.502 
		957.167,9.502 957.167,44.002 	"/>
	<polyline fill="none" stroke="#FAF9F7" stroke-width="3" stroke-miterlimit="10" points="912.167,44.002 912.167,9.502 
		876.167,9.502 876.167,44.002 	"/>
	<line fill="none" stroke="#FAF9F7" stroke-width="3" stroke-miterlimit="10" x1="886.167" y1="66.502" x2="876.668" y2="79.336"/>
	<line fill="none" stroke="#FAF9F7" stroke-width="3" stroke-miterlimit="10" x1="948.497" y1="65.934" x2="960.338" y2="78.402"/>
</g>
<g>
	<circle fill="#54D1DB" cx="741.833" cy="41.168" r="71.167"/>
	<g>
		<polyline fill="none" stroke="#FAF9F7" stroke-width="3" stroke-miterlimit="10" points="714.167,50.002 714.167,-3.498 
			769.167,-3.498 769.167,92.502 741.667,92.502 		"/>
		<circle fill="#FAF9F7" cx="759.747" cy="17.324" r="3.087"/>
		<circle fill="#FAF9F7" cx="759.747" cy="58.839" r="3.087"/>
		<line fill="none" stroke="#FAF9F7" stroke-width="3" stroke-miterlimit="10" x1="768.667" y1="34.502" x2="736.667" y2="34.502"/>
	</g>
</g>
<g>
	<circle fill="#54D1DB" cx="917.917" cy="214.752" r="70.75"/>
	<polyline fill="none" stroke="#FAF9F7" stroke-width="3" stroke-miterlimit="10" points="874.167,214.002 874.167,174.502 
		957.167,174.502 957.167,256.502 904.667,256.502 	"/>
	<path fill="none" stroke="#FAF9F7" stroke-width="3" stroke-miterlimit="10" d="M934.147,222.032
		c0.001,10.264-8.317,18.582-18.581,18.582c-10.263,0-18.58-8.318-18.58-18.582c0-10.263,8.317-18.581,18.58-18.581"/>
	
		<line fill="none" stroke="#FAF9F7" stroke-width="3" stroke-miterlimit="10" x1="956.667" y1="190.502" x2="901.667" y2="190.502"/>
</g>
</svg>
