<?xml version="1.0" encoding="utf-8"?>
<!-- Generator: Adobe Illustrator 15.0.0, SVG Export Plug-In . SVG Version: 6.00 Build 0)  -->
<!DOCTYPE svg PUBLIC "-//W3C//DTD SVG 1.1//EN" "http://www.w3.org/Graphics/SVG/1.1/DTD/svg11.dtd">
<svg version="1.1" id="Calque_1" xmlns="http://www.w3.org/2000/svg" xmlns:xlink="http://www.w3.org/1999/xlink" x="0px" y="0px"
	 width="171.698px" height="177.358px" viewBox="0 0 171.698 177.358" enable-background="new 0 0 171.698 177.358"
	 xml:space="preserve">
<g>
	<circle fill="#54D1DB" stroke="#FFFFFF" stroke-width="2" stroke-miterlimit="10" cx="86.92" cy="89.189" r="73.81"/>
	
		<line fill="#FFFFFF" stroke="#FFFFFF" stroke-width="2" stroke-miterlimit="10" x1="84.601" y1="54.143" x2="124.016" y2="57.363"/>
	<line fill="#FFFFFF" stroke="#FFFFFF" stroke-width="2" stroke-miterlimit="10" x1="84.769" y1="53.653" x2="71.872" y2="72.788"/>
	
		<line fill="#FFFFFF" stroke="#FFFFFF" stroke-width="2" stroke-miterlimit="10" x1="124.272" y1="57.264" x2="149.865" y2="87.414"/>
	
		<line fill="#FFFFFF" stroke="#FFFFFF" stroke-width="2" stroke-miterlimit="10" x1="85.633" y1="54.291" x2="111.224" y2="84.441"/>
	
		<line fill="#FFFFFF" stroke="#FFFFFF" stroke-width="2" stroke-miterlimit="10" x1="110.727" y1="83.832" x2="150.142" y2="87.055"/>
	
		<line fill="#FFFFFF" stroke="#FFFFFF" stroke-width="2" stroke-miterlimit="10" x1="111.422" y1="83.883" x2="104.309" y2="94.439"/>
	
		<line fill="#FFFFFF" stroke="#FFFFFF" stroke-width="2" stroke-miterlimit="10" x1="149.964" y1="87.367" x2="127.742" y2="120.872"/>
	
		<line fill="#FFFFFF" stroke="#FFFFFF" stroke-width="2" stroke-miterlimit="10" x1="129.068" y1="120.529" x2="85.929" y2="120.618"/>
	<path fill="#FFFFFF" d="M45.125,74.003v16.861h-4.107V80.319l-3.651,10.545h-3.554l-3.675-10.569v10.569h-4.106V74.003h5.021
		l4.586,11.745l4.492-11.745H45.125z"/>
	<path fill="#FFFFFF" d="M59.141,78.123c1.048,0.55,1.873,1.347,2.473,2.388c0.601,1.042,0.901,2.259,0.901,3.651
		s-0.301,2.61-0.901,3.65c-0.6,1.043-1.425,1.837-2.473,2.392c-1.048,0.553-2.239,0.827-3.566,0.827c-1.33,0-2.522-0.274-3.58-0.827
		c-1.057-0.555-1.885-1.349-2.485-2.392c-0.601-1.04-0.901-2.258-0.901-3.65s0.301-2.609,0.901-3.651
		c0.601-1.041,1.429-1.838,2.485-2.388c1.058-0.555,2.25-0.83,3.58-0.83C56.901,77.293,58.093,77.568,59.141,78.123z M53.593,81.7
		c-0.539,0.568-0.806,1.389-0.806,2.462c0,1.074,0.267,1.89,0.806,2.449c0.535,0.562,1.195,0.842,1.981,0.842
		c0.784,0,1.439-0.28,1.969-0.842c0.528-0.56,0.791-1.375,0.791-2.449c0-1.073-0.263-1.894-0.791-2.462
		c-0.529-0.568-1.185-0.851-1.969-0.851C54.788,80.85,54.128,81.132,53.593,81.7z"/>
	<path fill="#FFFFFF" d="M72.194,86.854l2.905-9.393h4.37l-4.754,13.403h-5.091l-4.757-13.403h4.372L72.194,86.854z"/>
	<path fill="#FFFFFF" d="M95.131,84.906h-9.295c0.048,1.009,0.304,1.733,0.769,2.175c0.465,0.439,1.058,0.66,1.776,0.66
		c0.609,0,1.113-0.153,1.514-0.455c0.401-0.305,0.664-0.698,0.792-1.178h4.348c-0.176,0.945-0.561,1.789-1.151,2.533
		c-0.593,0.744-1.345,1.33-2.259,1.752c-0.912,0.426-1.93,0.638-3.05,0.638c-1.314,0-2.477-0.274-3.495-0.827
		c-1.017-0.555-1.813-1.349-2.39-2.392c-0.576-1.04-0.864-2.258-0.864-3.65c0-1.409,0.284-2.63,0.853-3.662
		c0.568-1.033,1.365-1.827,2.39-2.377c1.025-0.555,2.192-0.83,3.507-0.83c1.329,0,2.498,0.273,3.506,0.818
		c1.008,0.543,1.791,1.309,2.343,2.291c0.553,0.985,0.827,2.117,0.827,3.399C95.25,84.139,95.21,84.507,95.131,84.906z
		 M90.388,81.196c-0.489-0.44-1.093-0.662-1.813-0.662c-0.754,0-1.378,0.226-1.872,0.675c-0.497,0.449-0.779,1.104-0.842,1.969
		h5.235C91.111,82.297,90.877,81.637,90.388,81.196z"/>
	<path fill="#FFFFFF" d="M81.319,97.348v16.86h-4.106v-10.543l-3.651,10.543h-3.556l-3.673-10.567v10.567h-4.107v-16.86h5.019
		l4.589,11.744l4.492-11.744H81.319z"/>
	<path fill="#FFFFFF" d="M93.232,101.336c0.735,0.463,1.28,1.097,1.634,1.896v-2.426h4.082v13.401h-4.082v-2.425
		c-0.354,0.8-0.898,1.432-1.634,1.897c-0.736,0.465-1.616,0.697-2.641,0.697c-1.106,0-2.096-0.277-2.968-0.83
		s-1.56-1.349-2.066-2.39c-0.502-1.041-0.755-2.258-0.755-3.65c0-1.408,0.253-2.631,0.755-3.662
		c0.507-1.034,1.194-1.826,2.066-2.379c0.872-0.552,1.861-0.828,2.968-0.828C91.616,100.639,92.496,100.871,93.232,101.336z
		 M89.786,105.106c-0.537,0.577-0.804,1.376-0.804,2.401c0,1.023,0.267,1.825,0.804,2.401c0.535,0.577,1.244,0.864,2.126,0.864
		c0.865,0,1.573-0.297,2.124-0.889c0.554-0.591,0.83-1.384,0.83-2.377c0-1.009-0.276-1.806-0.83-2.392
		c-0.551-0.583-1.259-0.876-2.124-0.876C91.03,104.24,90.321,104.528,89.786,105.106z"/>
	<path fill="#FFFFFF" d="M110.717,110.677v3.531h-1.851c-1.569,0-2.789-0.388-3.663-1.165c-0.872-0.775-1.307-2.062-1.307-3.854
		v-4.923h-1.802v-3.459h1.802v-3.29h4.105v3.29h2.689v3.459h-2.689v4.996c0,0.527,0.108,0.896,0.325,1.104
		c0.216,0.208,0.581,0.311,1.092,0.311H110.717z"/>
	<path fill="#FFFFFF" d="M126.975,108.252h-9.293c0.047,1.01,0.304,1.734,0.768,2.174c0.465,0.441,1.058,0.66,1.777,0.66
		c0.609,0,1.113-0.152,1.514-0.456s0.664-0.696,0.793-1.178h4.348c-0.177,0.945-0.562,1.79-1.153,2.536
		c-0.592,0.742-1.344,1.327-2.258,1.753c-0.912,0.423-1.93,0.637-3.05,0.637c-1.314,0-2.479-0.277-3.494-0.83
		c-1.017-0.553-1.812-1.349-2.392-2.39c-0.576-1.041-0.864-2.258-0.864-3.65c0-1.408,0.284-2.631,0.854-3.662
		c0.568-1.034,1.365-1.826,2.389-2.379c1.025-0.552,2.193-0.828,3.508-0.828c1.328,0,2.497,0.272,3.506,0.816
		c1.009,0.545,1.79,1.309,2.343,2.294c0.551,0.983,0.827,2.118,0.827,3.398C127.096,107.483,127.058,107.853,126.975,108.252z
		 M122.233,104.541c-0.488-0.44-1.094-0.659-1.813-0.659c-0.754,0-1.378,0.223-1.873,0.671c-0.497,0.449-0.776,1.104-0.842,1.97
		h5.236C122.956,105.643,122.722,104.982,122.233,104.541z"/>
</g>
</svg>
